<svg height="512" viewBox="0 0 56 51" width="512" xmlns="http://www.w3.org/2000/svg"><g id="026---Cheese-Knife"><path id="Shape" d="m17.58 28.9c-.7626042-.7647415-1.9957091-.782484-2.78-.04l-12.968 11.987c-1.5289595 1.4475671-2.15070303 3.611536-1.62331552 5.6499251s2.12061772 3.6292832 4.15977847 4.1536791c2.03916076.5243959 4.20221504-.1005223 5.64753705-1.6316042l11.975-12.953c.7489127-.7849081.7320194-2.0247873-.038-2.789z"/><path id="Shape" d="m39.565 2.806-19.091 19.094c-.3903819.3904999-.3903819 1.0235001 0 1.414.562719.5626237.8788593 1.3257625.8788593 2.1215s-.3161403 1.5588763-.8788593 2.1215l-.707.707 3.533 3.536 19.094-19.094c.7501514-.7501901 1.7675983-1.1716458 2.8285-1.1716458s2.0783486.4214557 2.8285 1.1716458l2.289 2.294-.348-3.832c-.0537897-.5911725.1578097-1.17569246.5775586-1.59544137.4197489-.4197489 1.0042689-.63134836 1.5954414-.57755863l3.835.343-6.535-6.532c-2.7355533-2.72959632-7.1644467-2.72959632-9.9 0zm-.707 6.364-12.02 12.021c-.2510745.2599566-.6228779.3642126-.9725073.2726972-.3496295-.0915155-.6226744-.3645604-.7141899-.7141899-.0915154-.3496294.0127406-.7214328.2726972-.9725073l12.02-12.021c.3923789-.37897221 1.0160848-.37355237 1.4018186.01218142.3857338.3857338.3911536 1.00943969.0121814 1.40181858zm3.536-3.535c-.646.645-.882 1-1.415 1-.4043959-.00008635-.7689341-.2437275-.923678-.61734544s-.0692299-.80366031.216678-1.08965456l.707-.707c.2525868-.2527654.6208353-.35157683.96603-.25921297.3451946.09236386.6148921.36187073.7075.707.0926078.34512926-.0059432.71344757-.25853.96621297z"/></g></svg>